<?xml version="1.0" encoding="utf-8"?>
<!DOCTYPE svg>
<svg width="600.0" height="645.4545454545454"><rect width="600.0" height="645.4545454545454" style="fill:white" />
<line x1="50.0" y1="504.5454545454545" x2="50.0" y2="368.18181818181813" style="stroke:black;stroke-width:4" />
<line x1="50.0" y1="368.18181818181813" x2="140.9090909090909" y2="368.18181818181813" style="stroke:black;stroke-width:4" />
<line x1="140.9090909090909" y1="368.18181818181813" x2="140.9090909090909" y2="322.7272727272727" style="stroke:black;stroke-width:4" />
<line x1="140.9090909090909" y1="322.7272727272727" x2="50.0" y2="322.7272727272727" style="stroke:black;stroke-width:4" />
<line x1="50.0" y1="322.7272727272727" x2="50.0" y2="50.0" style="stroke:black;stroke-width:4" />
<line x1="50.0" y1="50.0" x2="140.9090909090909" y2="50.0" style="stroke:black;stroke-width:4" />
<line x1="140.9090909090909" y1="50.0" x2="140.9090909090909" y2="186.36363636363637" style="stroke:black;stroke-width:4" />
<line x1="140.9090909090909" y1="186.36363636363637" x2="368.1818181818182" y2="186.36363636363637" style="stroke:black;stroke-width:4" />
<ellipse cx="140.9090909090909" cy="186.36363636363637" rx="5" ry="5" style="fill:red;stroke:black;stroke-width:1" />
<line x1="368.1818181818182" y1="186.36363636363637" x2="368.1818181818182" y2="140.90909090909093" style="stroke:black;stroke-width:4" />
<ellipse cx="368.1818181818182" cy="186.36363636363637" rx="5" ry="5" style="fill:red;stroke:black;stroke-width:1" />
<line x1="368.1818181818182" y1="140.90909090909093" x2="186.36363636363637" y2="140.90909090909093" style="stroke:black;stroke-width:4" />
<line x1="186.36363636363637" y1="140.90909090909093" x2="186.36363636363637" y2="50.0" style="stroke:black;stroke-width:4" />
<line x1="186.36363636363637" y1="50.0" x2="550.0" y2="50.0" style="stroke:black;stroke-width:4" />
<ellipse cx="186.36363636363637" cy="50.0" rx="5" ry="5" style="fill:red;stroke:black;stroke-width:1" />
<line x1="550.0" y1="50.0" x2="550.0" y2="140.90909090909093" style="stroke:black;stroke-width:4" />
<line x1="550.0" y1="140.90909090909093" x2="413.6363636363636" y2="140.90909090909093" style="stroke:black;stroke-width:4" />
<line x1="413.6363636363636" y1="140.90909090909093" x2="413.6363636363636" y2="186.36363636363637" style="stroke:black;stroke-width:4" />
<line x1="413.6363636363636" y1="186.36363636363637" x2="550.0" y2="186.36363636363637" style="stroke:black;stroke-width:4" />
<line x1="550.0" y1="186.36363636363637" x2="550.0" y2="413.6363636363636" style="stroke:black;stroke-width:4" />
<ellipse cx="550.0" cy="186.36363636363637" rx="5" ry="5" style="fill:red;stroke:black;stroke-width:1" />
<line x1="550.0" y1="413.6363636363636" x2="413.6363636363636" y2="413.6363636363636" style="stroke:black;stroke-width:4" />
<line x1="413.6363636363636" y1="413.6363636363636" x2="413.6363636363636" y2="504.5454545454545" style="stroke:black;stroke-width:4" />
<line x1="413.6363636363636" y1="504.5454545454545" x2="459.09090909090907" y2="504.5454545454545" style="stroke:black;stroke-width:4" />
<ellipse cx="413.6363636363636" cy="504.5454545454545" rx="5" ry="5" style="fill:red;stroke:black;stroke-width:1" />
<line x1="459.09090909090907" y1="504.5454545454545" x2="459.09090909090907" y2="459.090909090909" style="stroke:black;stroke-width:4" />
<line x1="459.09090909090907" y1="459.090909090909" x2="550.0" y2="459.090909090909" style="stroke:black;stroke-width:4" />
<line x1="550.0" y1="459.090909090909" x2="550.0" y2="595.4545454545454" style="stroke:black;stroke-width:4" />
<line x1="550.0" y1="595.4545454545454" x2="459.09090909090907" y2="595.4545454545454" style="stroke:black;stroke-width:4" />
<ellipse cx="550.0" cy="595.4545454545454" rx="5" ry="5" style="fill:red;stroke:black;stroke-width:1" />
<line x1="459.09090909090907" y1="595.4545454545454" x2="459.09090909090907" y2="550.0" style="stroke:black;stroke-width:4" />
<line x1="459.09090909090907" y1="550.0" x2="413.6363636363636" y2="550.0" style="stroke:black;stroke-width:4" />
<line x1="413.6363636363636" y1="550.0" x2="413.6363636363636" y2="595.4545454545454" style="stroke:black;stroke-width:4" />
<line x1="413.6363636363636" y1="595.4545454545454" x2="277.27272727272725" y2="595.4545454545454" style="stroke:black;stroke-width:4" />
<line x1="277.27272727272725" y1="595.4545454545454" x2="277.27272727272725" y2="459.090909090909" style="stroke:black;stroke-width:4" />
<line x1="277.27272727272725" y1="459.090909090909" x2="322.72727272727275" y2="459.090909090909" style="stroke:black;stroke-width:4" />
<line x1="322.72727272727275" y1="459.090909090909" x2="322.72727272727275" y2="413.6363636363636" style="stroke:black;stroke-width:4" />
<line x1="322.72727272727275" y1="413.6363636363636" x2="277.27272727272725" y2="413.6363636363636" style="stroke:black;stroke-width:4" />
<line x1="277.27272727272725" y1="413.6363636363636" x2="277.27272727272725" y2="322.7272727272727" style="stroke:black;stroke-width:4" />
<line x1="277.27272727272725" y1="322.7272727272727" x2="231.8181818181818" y2="322.7272727272727" style="stroke:black;stroke-width:4" />
<line x1="231.8181818181818" y1="322.7272727272727" x2="231.8181818181818" y2="413.6363636363636" style="stroke:black;stroke-width:4" />
<line x1="231.8181818181818" y1="413.6363636363636" x2="186.36363636363637" y2="413.6363636363636" style="stroke:black;stroke-width:4" />
<line x1="186.36363636363637" y1="413.6363636363636" x2="186.36363636363637" y2="459.090909090909" style="stroke:black;stroke-width:4" />
<line x1="186.36363636363637" y1="459.090909090909" x2="231.8181818181818" y2="459.090909090909" style="stroke:black;stroke-width:4" />
<ellipse cx="186.36363636363637" cy="459.090909090909" rx="5" ry="5" style="fill:red;stroke:black;stroke-width:1" />
<line x1="231.8181818181818" y1="459.090909090909" x2="231.8181818181818" y2="595.4545454545454" style="stroke:black;stroke-width:4" />
<line x1="231.8181818181818" y1="595.4545454545454" x2="140.9090909090909" y2="595.4545454545454" style="stroke:black;stroke-width:4" />
<line x1="140.9090909090909" y1="595.4545454545454" x2="140.9090909090909" y2="504.5454545454545" style="stroke:black;stroke-width:4" />
<line x1="140.9090909090909" y1="504.5454545454545" x2="50.0" y2="504.5454545454545" style="stroke:black;stroke-width:4" />
</svg>