<?xml version="1.0" encoding="utf-8"?>
<!DOCTYPE svg>
<svg width="1231.578947368421" height="600.0"><rect width="1231.578947368421" height="600.0" style="fill:white" />
<line x1="50.0" y1="523.6842105263158" x2="76.3157894736842" y2="550.0" style="stroke:black;stroke-width:4" />
<line x1="76.3157894736842" y1="550.0" x2="128.94736842105263" y2="550.0" style="stroke:black;stroke-width:4" />
<line x1="128.94736842105263" y1="550.0" x2="155.26315789473682" y2="523.6842105263158" style="stroke:black;stroke-width:4" />
<line x1="155.26315789473682" y1="523.6842105263158" x2="234.21052631578945" y2="523.6842105263158" style="stroke:black;stroke-width:4" />
<line x1="234.21052631578945" y1="523.6842105263158" x2="234.21052631578945" y2="550.0" style="stroke:black;stroke-width:4" />
<line x1="234.21052631578945" y1="550.0" x2="260.52631578947364" y2="550.0" style="stroke:black;stroke-width:4" />
<line x1="260.52631578947364" y1="550.0" x2="260.52631578947364" y2="523.6842105263158" style="stroke:black;stroke-width:4" />
<line x1="260.52631578947364" y1="523.6842105263158" x2="392.10526315789474" y2="523.6842105263158" style="stroke:black;stroke-width:4" />
<line x1="392.10526315789474" y1="523.6842105263158" x2="392.10526315789474" y2="234.21052631578948" style="stroke:black;stroke-width:4" />
<line x1="392.10526315789474" y1="234.21052631578948" x2="207.89473684210526" y2="234.21052631578948" style="stroke:black;stroke-width:4" />
<ellipse cx="392.10526315789474" cy="234.21052631578948" rx="5" ry="5" style="fill:red;stroke:black;stroke-width:1" />
<line x1="207.89473684210526" y1="234.21052631578948" x2="207.89473684210526" y2="181.5789473684211" style="stroke:black;stroke-width:4" />
<line x1="207.89473684210526" y1="181.5789473684211" x2="418.4210526315789" y2="181.5789473684211" style="stroke:black;stroke-width:4" />
<line x1="418.4210526315789" y1="181.5789473684211" x2="418.4210526315789" y2="550.0" style="stroke:black;stroke-width:4" />
<line x1="418.4210526315789" y1="550.0" x2="444.7368421052631" y2="550.0" style="stroke:black;stroke-width:4" />
<line x1="444.7368421052631" y1="550.0" x2="471.05263157894734" y2="523.6842105263158" style="stroke:black;stroke-width:4" />
<ellipse cx="444.7368421052631" cy="550.0" rx="5" ry="5" style="fill:red;stroke:black;stroke-width:1" />
<line x1="471.05263157894734" y1="523.6842105263158" x2="576.3157894736842" y2="523.6842105263158" style="stroke:black;stroke-width:4" />
<ellipse cx="471.05263157894734" cy="523.6842105263158" rx="5" ry="5" style="fill:red;stroke:black;stroke-width:1" />
<line x1="576.3157894736842" y1="523.6842105263158" x2="576.3157894736842" y2="550.0" style="stroke:black;stroke-width:4" />
<line x1="576.3157894736842" y1="550.0" x2="628.9473684210526" y2="550.0" style="stroke:black;stroke-width:4" />
<line x1="628.9473684210526" y1="550.0" x2="628.9473684210526" y2="523.6842105263158" style="stroke:black;stroke-width:4" />
<ellipse cx="628.9473684210526" cy="550.0" rx="5" ry="5" style="fill:red;stroke:black;stroke-width:1" />
<line x1="628.9473684210526" y1="523.6842105263158" x2="734.2105263157895" y2="523.6842105263158" style="stroke:black;stroke-width:4" />
<line x1="734.2105263157895" y1="523.6842105263158" x2="760.5263157894736" y2="550.0" style="stroke:black;stroke-width:4" />
<line x1="760.5263157894736" y1="550.0" x2="786.8421052631578" y2="550.0" style="stroke:black;stroke-width:4" />
<line x1="786.8421052631578" y1="550.0" x2="786.8421052631578" y2="181.5789473684211" style="stroke:black;stroke-width:4" />
<line x1="786.8421052631578" y1="181.5789473684211" x2="997.3684210526316" y2="181.5789473684211" style="stroke:black;stroke-width:4" />
<ellipse cx="786.8421052631578" cy="181.5789473684211" rx="5" ry="5" style="fill:red;stroke:black;stroke-width:1" />
<line x1="997.3684210526316" y1="181.5789473684211" x2="997.3684210526316" y2="234.21052631578948" style="stroke:black;stroke-width:4" />
<line x1="997.3684210526316" y1="234.21052631578948" x2="813.1578947368421" y2="234.21052631578948" style="stroke:black;stroke-width:4" />
<line x1="813.1578947368421" y1="234.21052631578948" x2="813.1578947368421" y2="523.6842105263158" style="stroke:black;stroke-width:4" />
<ellipse cx="813.1578947368421" cy="234.21052631578948" rx="5" ry="5" style="fill:red;stroke:black;stroke-width:1" />
<line x1="813.1578947368421" y1="523.6842105263158" x2="944.7368421052631" y2="523.6842105263158" style="stroke:black;stroke-width:4" />
<ellipse cx="813.1578947368421" cy="523.6842105263158" rx="5" ry="5" style="fill:red;stroke:black;stroke-width:1" />
<line x1="944.7368421052631" y1="523.6842105263158" x2="944.7368421052631" y2="550.0" style="stroke:black;stroke-width:4" />
<line x1="944.7368421052631" y1="550.0" x2="971.0526315789473" y2="550.0" style="stroke:black;stroke-width:4" />
<ellipse cx="944.7368421052631" cy="550.0" rx="5" ry="5" style="fill:red;stroke:black;stroke-width:1" />
<line x1="971.0526315789473" y1="550.0" x2="971.0526315789473" y2="523.6842105263158" style="stroke:black;stroke-width:4" />
<line x1="971.0526315789473" y1="523.6842105263158" x2="1050.0" y2="523.6842105263158" style="stroke:black;stroke-width:4" />
<line x1="1050.0" y1="523.6842105263158" x2="1076.3157894736842" y2="550.0" style="stroke:black;stroke-width:4" />
<line x1="1076.3157894736842" y1="550.0" x2="1128.9473684210525" y2="550.0" style="stroke:black;stroke-width:4" />
<ellipse cx="1076.3157894736842" cy="550.0" rx="5" ry="5" style="fill:red;stroke:black;stroke-width:1" />
<line x1="1128.9473684210525" y1="550.0" x2="1155.2631578947369" y2="523.6842105263158" style="stroke:black;stroke-width:4" />
<line x1="1155.2631578947369" y1="523.6842105263158" x2="1181.578947368421" y2="523.6842105263158" style="stroke:black;stroke-width:4" />
<line x1="1181.578947368421" y1="523.6842105263158" x2="1181.578947368421" y2="444.7368421052632" style="stroke:black;stroke-width:4" />
<line x1="1181.578947368421" y1="444.7368421052632" x2="1128.9473684210525" y2="444.7368421052632" style="stroke:black;stroke-width:4" />
<line x1="1128.9473684210525" y1="444.7368421052632" x2="1128.9473684210525" y2="365.7894736842105" style="stroke:black;stroke-width:4" />
<line x1="1128.9473684210525" y1="365.7894736842105" x2="1155.2631578947369" y2="365.7894736842105" style="stroke:black;stroke-width:4" />
<line x1="1155.2631578947369" y1="365.7894736842105" x2="1155.2631578947369" y2="339.47368421052636" style="stroke:black;stroke-width:4" />
<line x1="1155.2631578947369" y1="339.47368421052636" x2="1128.9473684210525" y2="339.47368421052636" style="stroke:black;stroke-width:4" />
<ellipse cx="1155.2631578947369" cy="339.47368421052636" rx="5" ry="5" style="fill:red;stroke:black;stroke-width:1" />
<line x1="1128.9473684210525" y1="339.47368421052636" x2="1128.9473684210525" y2="260.5263157894737" style="stroke:black;stroke-width:4" />
<line x1="1128.9473684210525" y1="260.5263157894737" x2="1181.578947368421" y2="260.5263157894737" style="stroke:black;stroke-width:4" />
<line x1="1181.578947368421" y1="260.5263157894737" x2="1181.578947368421" y2="181.5789473684211" style="stroke:black;stroke-width:4" />
<line x1="1181.578947368421" y1="181.5789473684211" x2="1128.9473684210525" y2="181.5789473684211" style="stroke:black;stroke-width:4" />
<line x1="1128.9473684210525" y1="181.5789473684211" x2="1128.9473684210525" y2="76.31578947368422" style="stroke:black;stroke-width:4" />
<line x1="1128.9473684210525" y1="76.31578947368422" x2="1155.2631578947369" y2="76.31578947368422" style="stroke:black;stroke-width:4" />
<line x1="1155.2631578947369" y1="76.31578947368422" x2="1155.2631578947369" y2="50.00000000000006" style="stroke:black;stroke-width:4" />
<line x1="1155.2631578947369" y1="50.00000000000006" x2="50.0" y2="50.00000000000006" style="stroke:black;stroke-width:4" />
<line x1="50.0" y1="50.00000000000006" x2="50.0" y2="523.6842105263158" style="stroke:black;stroke-width:4" />
<ellipse cx="50.0" cy="50.00000000000006" rx="5" ry="5" style="fill:red;stroke:black;stroke-width:1" />
</svg>