<?xml version="1.0" encoding="utf-8"?>
<!DOCTYPE svg>
<svg width="2850.0" height="600.0"><rect width="2850.0" height="600.0" style="fill:white" />
<line x1="50.0" y1="550.0" x2="300.0" y2="50.0" style="stroke:black;stroke-width:4" />
<line x1="300.0" y1="50.0" x2="550.0" y2="300.0" style="stroke:black;stroke-width:4" />
<ellipse cx="300.0" cy="50.0" rx="5" ry="5" style="fill:red;stroke:black;stroke-width:1" />
<line x1="550.0" y1="300.0" x2="800.0" y2="300.0" style="stroke:black;stroke-width:4" />
<line x1="800.0" y1="300.0" x2="1050.0" y2="50.0" style="stroke:black;stroke-width:4" />
<line x1="1050.0" y1="50.0" x2="1300.0" y2="300.0" style="stroke:black;stroke-width:4" />
<ellipse cx="1050.0" cy="50.0" rx="5" ry="5" style="fill:red;stroke:black;stroke-width:1" />
<line x1="1300.0" y1="300.0" x2="1550.0" y2="300.0" style="stroke:black;stroke-width:4" />
<line x1="1550.0" y1="300.0" x2="1800.0" y2="50.0" style="stroke:black;stroke-width:4" />
<line x1="1800.0" y1="50.0" x2="2050.0" y2="300.0" style="stroke:black;stroke-width:4" />
<ellipse cx="1800.0" cy="50.0" rx="5" ry="5" style="fill:red;stroke:black;stroke-width:1" />
<line x1="2050.0" y1="300.0" x2="2300.0" y2="300.0" style="stroke:black;stroke-width:4" />
<line x1="2300.0" y1="300.0" x2="2550.0" y2="50.0" style="stroke:black;stroke-width:4" />
<line x1="2550.0" y1="50.0" x2="2800.0" y2="550.0" style="stroke:black;stroke-width:4" />
<ellipse cx="2550.0" cy="50.0" rx="5" ry="5" style="fill:red;stroke:black;stroke-width:1" />
<line x1="2800.0" y1="550.0" x2="50.0" y2="550.0" style="stroke:black;stroke-width:4" />
</svg>