<?xml version="1.0" encoding="utf-8"?>
<!DOCTYPE svg>
<svg width="600.0" height="850.0"><rect width="600.0" height="850.0" style="fill:white" />
<line x1="165.3846153846154" y1="793.5897435897435" x2="171.7948717948718" y2="800.0" style="stroke:black;stroke-width:4" />
<line x1="171.7948717948718" y1="800.0" x2="184.6153846153846" y2="800.0" style="stroke:black;stroke-width:4" />
<line x1="184.6153846153846" y1="800.0" x2="191.02564102564102" y2="793.5897435897435" style="stroke:black;stroke-width:4" />
<line x1="191.02564102564102" y1="793.5897435897435" x2="210.25641025641028" y2="793.5897435897435" style="stroke:black;stroke-width:4" />
<ellipse cx="191.02564102564102" cy="793.5897435897435" rx="5" ry="5" style="fill:red;stroke:black;stroke-width:1" />
<line x1="210.25641025641028" y1="793.5897435897435" x2="210.25641025641028" y2="800.0" style="stroke:black;stroke-width:4" />
<line x1="210.25641025641028" y1="800.0" x2="216.66666666666669" y2="800.0" style="stroke:black;stroke-width:4" />
<line x1="216.66666666666669" y1="800.0" x2="216.66666666666669" y2="793.5897435897435" style="stroke:black;stroke-width:4" />
<line x1="216.66666666666669" y1="793.5897435897435" x2="248.71794871794873" y2="793.5897435897435" style="stroke:black;stroke-width:4" />
<ellipse cx="216.66666666666669" cy="793.5897435897435" rx="5" ry="5" style="fill:red;stroke:black;stroke-width:1" />
<line x1="248.71794871794873" y1="793.5897435897435" x2="248.71794871794873" y2="723.0769230769231" style="stroke:black;stroke-width:4" />
<line x1="248.71794871794873" y1="723.0769230769231" x2="203.84615384615387" y2="723.0769230769231" style="stroke:black;stroke-width:4" />
<ellipse cx="248.71794871794873" cy="723.0769230769231" rx="5" ry="5" style="fill:red;stroke:black;stroke-width:1" />
<line x1="203.84615384615387" y1="723.0769230769231" x2="203.84615384615387" y2="710.2564102564103" style="stroke:black;stroke-width:4" />
<ellipse cx="203.84615384615387" cy="723.0769230769231" rx="5" ry="5" style="fill:red;stroke:black;stroke-width:1" />
<line x1="203.84615384615387" y1="710.2564102564103" x2="255.12820512820514" y2="710.2564102564103" style="stroke:black;stroke-width:4" />
<line x1="255.12820512820514" y1="710.2564102564103" x2="255.12820512820514" y2="800.0" style="stroke:black;stroke-width:4" />
<line x1="255.12820512820514" y1="800.0" x2="261.53846153846155" y2="800.0" style="stroke:black;stroke-width:4" />
<line x1="261.53846153846155" y1="800.0" x2="267.94871794871796" y2="793.5897435897435" style="stroke:black;stroke-width:4" />
<line x1="267.94871794871796" y1="793.5897435897435" x2="293.5897435897436" y2="793.5897435897435" style="stroke:black;stroke-width:4" />
<line x1="293.5897435897436" y1="793.5897435897435" x2="293.5897435897436" y2="800.0" style="stroke:black;stroke-width:4" />
<line x1="293.5897435897436" y1="800.0" x2="306.4102564102564" y2="800.0" style="stroke:black;stroke-width:4" />
<line x1="306.4102564102564" y1="800.0" x2="306.4102564102564" y2="793.5897435897435" style="stroke:black;stroke-width:4" />
<line x1="306.4102564102564" y1="793.5897435897435" x2="332.05128205128204" y2="793.5897435897435" style="stroke:black;stroke-width:4" />
<line x1="332.05128205128204" y1="793.5897435897435" x2="338.46153846153845" y2="800.0" style="stroke:black;stroke-width:4" />
<line x1="338.46153846153845" y1="800.0" x2="344.87179487179486" y2="800.0" style="stroke:black;stroke-width:4" />
<line x1="344.87179487179486" y1="800.0" x2="344.87179487179486" y2="710.2564102564103" style="stroke:black;stroke-width:4" />
<line x1="344.87179487179486" y1="710.2564102564103" x2="396.1538461538462" y2="710.2564102564103" style="stroke:black;stroke-width:4" />
<line x1="396.1538461538462" y1="710.2564102564103" x2="396.1538461538462" y2="723.0769230769231" style="stroke:black;stroke-width:4" />
<ellipse cx="396.1538461538462" cy="710.2564102564103" rx="5" ry="5" style="fill:red;stroke:black;stroke-width:1" />
<line x1="396.1538461538462" y1="723.0769230769231" x2="351.28205128205127" y2="723.0769230769231" style="stroke:black;stroke-width:4" />
<line x1="351.28205128205127" y1="723.0769230769231" x2="351.28205128205127" y2="793.5897435897435" style="stroke:black;stroke-width:4" />
<line x1="351.28205128205127" y1="793.5897435897435" x2="383.33333333333337" y2="793.5897435897435" style="stroke:black;stroke-width:4" />
<line x1="383.33333333333337" y1="793.5897435897435" x2="383.33333333333337" y2="800.0" style="stroke:black;stroke-width:4" />
<ellipse cx="383.33333333333337" cy="793.5897435897435" rx="5" ry="5" style="fill:red;stroke:black;stroke-width:1" />
<line x1="383.33333333333337" y1="800.0" x2="389.7435897435898" y2="800.0" style="stroke:black;stroke-width:4" />
<line x1="389.7435897435898" y1="800.0" x2="389.7435897435898" y2="793.5897435897435" style="stroke:black;stroke-width:4" />
<line x1="389.7435897435898" y1="793.5897435897435" x2="408.974358974359" y2="793.5897435897435" style="stroke:black;stroke-width:4" />
<line x1="408.974358974359" y1="793.5897435897435" x2="415.3846153846154" y2="800.0" style="stroke:black;stroke-width:4" />
<line x1="415.3846153846154" y1="800.0" x2="428.20512820512823" y2="800.0" style="stroke:black;stroke-width:4" />
<line x1="428.20512820512823" y1="800.0" x2="434.61538461538464" y2="793.5897435897435" style="stroke:black;stroke-width:4" />
<line x1="434.61538461538464" y1="793.5897435897435" x2="441.02564102564105" y2="793.5897435897435" style="stroke:black;stroke-width:4" />
<line x1="441.02564102564105" y1="793.5897435897435" x2="441.02564102564105" y2="774.3589743589744" style="stroke:black;stroke-width:4" />
<ellipse cx="441.02564102564105" cy="793.5897435897435" rx="5" ry="5" style="fill:red;stroke:black;stroke-width:1" />
<line x1="441.02564102564105" y1="774.3589743589744" x2="428.20512820512823" y2="774.3589743589744" style="stroke:black;stroke-width:4" />
<line x1="428.20512820512823" y1="774.3589743589744" x2="428.20512820512823" y2="755.1282051282051" style="stroke:black;stroke-width:4" />
<line x1="428.20512820512823" y1="755.1282051282051" x2="434.61538461538464" y2="755.1282051282051" style="stroke:black;stroke-width:4" />
<line x1="434.61538461538464" y1="755.1282051282051" x2="434.61538461538464" y2="748.7179487179487" style="stroke:black;stroke-width:4" />
<ellipse cx="434.61538461538464" cy="755.1282051282051" rx="5" ry="5" style="fill:red;stroke:black;stroke-width:1" />
<line x1="434.61538461538464" y1="748.7179487179487" x2="428.20512820512823" y2="748.7179487179487" style="stroke:black;stroke-width:4" />
<line x1="428.20512820512823" y1="748.7179487179487" x2="428.20512820512823" y2="729.4871794871794" style="stroke:black;stroke-width:4" />
<line x1="428.20512820512823" y1="729.4871794871794" x2="441.02564102564105" y2="729.4871794871794" style="stroke:black;stroke-width:4" />
<line x1="441.02564102564105" y1="729.4871794871794" x2="441.02564102564105" y2="710.2564102564103" style="stroke:black;stroke-width:4" />
<line x1="441.02564102564105" y1="710.2564102564103" x2="428.20512820512823" y2="710.2564102564103" style="stroke:black;stroke-width:4" />
<line x1="428.20512820512823" y1="710.2564102564103" x2="428.20512820512823" y2="684.6153846153846" style="stroke:black;stroke-width:4" />
<line x1="428.20512820512823" y1="684.6153846153846" x2="434.61538461538464" y2="684.6153846153846" style="stroke:black;stroke-width:4" />
<ellipse cx="428.20512820512823" cy="684.6153846153846" rx="5" ry="5" style="fill:red;stroke:black;stroke-width:1" />
<line x1="434.61538461538464" y1="684.6153846153846" x2="434.61538461538464" y2="678.2051282051282" style="stroke:black;stroke-width:4" />
<line x1="434.61538461538464" y1="678.2051282051282" x2="428.20512820512823" y2="678.2051282051282" style="stroke:black;stroke-width:4" />
<line x1="428.20512820512823" y1="678.2051282051282" x2="428.20512820512823" y2="652.5641025641025" style="stroke:black;stroke-width:4" />
<line x1="428.20512820512823" y1="652.5641025641025" x2="434.61538461538464" y2="652.5641025641025" style="stroke:black;stroke-width:4" />
<line x1="434.61538461538464" y1="652.5641025641025" x2="434.61538461538464" y2="646.1538461538462" style="stroke:black;stroke-width:4" />
<line x1="434.61538461538464" y1="646.1538461538462" x2="428.20512820512823" y2="646.1538461538462" style="stroke:black;stroke-width:4" />
<line x1="428.20512820512823" y1="646.1538461538462" x2="428.20512820512823" y2="620.5128205128206" style="stroke:black;stroke-width:4" />
<line x1="428.20512820512823" y1="620.5128205128206" x2="434.61538461538464" y2="620.5128205128206" style="stroke:black;stroke-width:4" />
<line x1="434.61538461538464" y1="620.5128205128206" x2="434.61538461538464" y2="614.1025641025641" style="stroke:black;stroke-width:4" />
<line x1="434.61538461538464" y1="614.1025641025641" x2="428.20512820512823" y2="614.1025641025641" style="stroke:black;stroke-width:4" />
<line x1="428.20512820512823" y1="614.1025641025641" x2="428.20512820512823" y2="588.4615384615385" style="stroke:black;stroke-width:4" />
<line x1="428.20512820512823" y1="588.4615384615385" x2="434.61538461538464" y2="588.4615384615385" style="stroke:black;stroke-width:4" />
<line x1="434.61538461538464" y1="588.4615384615385" x2="434.61538461538464" y2="582.051282051282" style="stroke:black;stroke-width:4" />
<line x1="434.61538461538464" y1="582.051282051282" x2="428.20512820512823" y2="582.051282051282" style="stroke:black;stroke-width:4" />
<line x1="428.20512820512823" y1="582.051282051282" x2="428.20512820512823" y2="556.4102564102564" style="stroke:black;stroke-width:4" />
<line x1="428.20512820512823" y1="556.4102564102564" x2="434.61538461538464" y2="556.4102564102564" style="stroke:black;stroke-width:4" />
<line x1="434.61538461538464" y1="556.4102564102564" x2="434.61538461538464" y2="550.0" style="stroke:black;stroke-width:4" />
<line x1="434.61538461538464" y1="550.0" x2="428.20512820512823" y2="550.0" style="stroke:black;stroke-width:4" />
<line x1="428.20512820512823" y1="550.0" x2="428.20512820512823" y2="517.948717948718" style="stroke:black;stroke-width:4" />
<line x1="428.20512820512823" y1="517.948717948718" x2="434.61538461538464" y2="517.948717948718" style="stroke:black;stroke-width:4" />
<line x1="434.61538461538464" y1="517.948717948718" x2="434.61538461538464" y2="511.53846153846155" style="stroke:black;stroke-width:4" />
<line x1="434.61538461538464" y1="511.53846153846155" x2="428.20512820512823" y2="511.53846153846155" style="stroke:black;stroke-width:4" />
<line x1="428.20512820512823" y1="511.53846153846155" x2="428.20512820512823" y2="485.89743589743586" style="stroke:black;stroke-width:4" />
<line x1="428.20512820512823" y1="485.89743589743586" x2="434.61538461538464" y2="485.89743589743586" style="stroke:black;stroke-width:4" />
<ellipse cx="428.20512820512823" cy="485.89743589743586" rx="5" ry="5" style="fill:red;stroke:black;stroke-width:1" />
<line x1="434.61538461538464" y1="485.89743589743586" x2="434.61538461538464" y2="479.48717948717945" style="stroke:black;stroke-width:4" />
<line x1="434.61538461538464" y1="479.48717948717945" x2="428.20512820512823" y2="479.48717948717945" style="stroke:black;stroke-width:4" />
<line x1="428.20512820512823" y1="479.48717948717945" x2="428.20512820512823" y2="453.8461538461538" style="stroke:black;stroke-width:4" />
<line x1="428.20512820512823" y1="453.8461538461538" x2="434.61538461538464" y2="453.8461538461538" style="stroke:black;stroke-width:4" />
<line x1="434.61538461538464" y1="453.8461538461538" x2="434.61538461538464" y2="447.4358974358974" style="stroke:black;stroke-width:4" />
<line x1="434.61538461538464" y1="447.4358974358974" x2="428.20512820512823" y2="447.4358974358974" style="stroke:black;stroke-width:4" />
<line x1="428.20512820512823" y1="447.4358974358974" x2="428.20512820512823" y2="421.79487179487177" style="stroke:black;stroke-width:4" />
<line x1="428.20512820512823" y1="421.79487179487177" x2="434.61538461538464" y2="421.79487179487177" style="stroke:black;stroke-width:4" />
<ellipse cx="428.20512820512823" cy="421.79487179487177" rx="5" ry="5" style="fill:red;stroke:black;stroke-width:1" />
<line x1="434.61538461538464" y1="421.79487179487177" x2="434.61538461538464" y2="415.38461538461536" style="stroke:black;stroke-width:4" />
<line x1="434.61538461538464" y1="415.38461538461536" x2="428.20512820512823" y2="415.38461538461536" style="stroke:black;stroke-width:4" />
<ellipse cx="434.61538461538464" cy="415.38461538461536" rx="5" ry="5" style="fill:red;stroke:black;stroke-width:1" />
<line x1="428.20512820512823" y1="415.38461538461536" x2="428.20512820512823" y2="389.7435897435897" style="stroke:black;stroke-width:4" />
<line x1="428.20512820512823" y1="389.7435897435897" x2="434.61538461538464" y2="383.3333333333333" style="stroke:black;stroke-width:4" />
<line x1="434.61538461538464" y1="383.3333333333333" x2="453.84615384615387" y2="376.9230769230769" style="stroke:black;stroke-width:4" />
<line x1="453.84615384615387" y1="376.9230769230769" x2="460.2564102564103" y2="370.5128205128205" style="stroke:black;stroke-width:4" />
<line x1="460.2564102564103" y1="370.5128205128205" x2="479.4871794871795" y2="370.5128205128205" style="stroke:black;stroke-width:4" />
<line x1="479.4871794871795" y1="370.5128205128205" x2="479.4871794871795" y2="376.9230769230769" style="stroke:black;stroke-width:4" />
<ellipse cx="479.4871794871795" cy="370.5128205128205" rx="5" ry="5" style="fill:red;stroke:black;stroke-width:1" />
<line x1="479.4871794871795" y1="376.9230769230769" x2="492.3076923076923" y2="376.9230769230769" style="stroke:black;stroke-width:4" />
<ellipse cx="479.4871794871795" cy="376.9230769230769" rx="5" ry="5" style="fill:red;stroke:black;stroke-width:1" />
<line x1="492.3076923076923" y1="376.9230769230769" x2="492.3076923076923" y2="370.5128205128205" style="stroke:black;stroke-width:4" />
<line x1="492.3076923076923" y1="370.5128205128205" x2="517.948717948718" y2="370.5128205128205" style="stroke:black;stroke-width:4" />
<ellipse cx="492.3076923076923" cy="370.5128205128205" rx="5" ry="5" style="fill:red;stroke:black;stroke-width:1" />
<line x1="517.948717948718" y1="370.5128205128205" x2="524.3589743589744" y2="376.9230769230769" style="stroke:black;stroke-width:4" />
<line x1="524.3589743589744" y1="376.9230769230769" x2="530.7692307692307" y2="376.9230769230769" style="stroke:black;stroke-width:4" />
<line x1="530.7692307692307" y1="376.9230769230769" x2="537.1794871794872" y2="370.5128205128205" style="stroke:black;stroke-width:4" />
<line x1="537.1794871794872" y1="370.5128205128205" x2="550.0" y2="370.5128205128205" style="stroke:black;stroke-width:4" />
<line x1="550.0" y1="370.5128205128205" x2="550.0" y2="357.6923076923077" style="stroke:black;stroke-width:4" />
<ellipse cx="550.0" cy="370.5128205128205" rx="5" ry="5" style="fill:red;stroke:black;stroke-width:1" />
<line x1="550.0" y1="357.6923076923077" x2="537.1794871794872" y2="357.6923076923077" style="stroke:black;stroke-width:4" />
<line x1="537.1794871794872" y1="357.6923076923077" x2="537.1794871794872" y2="332.05128205128204" style="stroke:black;stroke-width:4" />
<line x1="537.1794871794872" y1="332.05128205128204" x2="550.0" y2="332.05128205128204" style="stroke:black;stroke-width:4" />
<line x1="550.0" y1="332.05128205128204" x2="550.0" y2="319.2307692307692" style="stroke:black;stroke-width:4" />
<line x1="550.0" y1="319.2307692307692" x2="537.1794871794872" y2="319.2307692307692" style="stroke:black;stroke-width:4" />
<line x1="537.1794871794872" y1="319.2307692307692" x2="537.1794871794872" y2="293.5897435897436" style="stroke:black;stroke-width:4" />
<line x1="537.1794871794872" y1="293.5897435897436" x2="550.0" y2="293.5897435897436" style="stroke:black;stroke-width:4" />
<line x1="550.0" y1="293.5897435897436" x2="550.0" y2="280.7692307692307" style="stroke:black;stroke-width:4" />
<line x1="550.0" y1="280.7692307692307" x2="537.1794871794872" y2="280.7692307692307" style="stroke:black;stroke-width:4" />
<line x1="537.1794871794872" y1="280.7692307692307" x2="537.1794871794872" y2="255.12820512820508" style="stroke:black;stroke-width:4" />
<line x1="537.1794871794872" y1="255.12820512820508" x2="550.0" y2="255.12820512820508" style="stroke:black;stroke-width:4" />
<line x1="550.0" y1="255.12820512820508" x2="550.0" y2="242.30769230769226" style="stroke:black;stroke-width:4" />
<line x1="550.0" y1="242.30769230769226" x2="537.1794871794872" y2="242.30769230769226" style="stroke:black;stroke-width:4" />
<line x1="537.1794871794872" y1="242.30769230769226" x2="537.1794871794872" y2="223.0769230769231" style="stroke:black;stroke-width:4" />
<line x1="537.1794871794872" y1="223.0769230769231" x2="543.5897435897436" y2="223.0769230769231" style="stroke:black;stroke-width:4" />
<ellipse cx="537.1794871794872" cy="223.0769230769231" rx="5" ry="5" style="fill:red;stroke:black;stroke-width:1" />
<line x1="543.5897435897436" y1="223.0769230769231" x2="543.5897435897436" y2="210.25641025641028" style="stroke:black;stroke-width:4" />
<line x1="543.5897435897436" y1="210.25641025641028" x2="530.7692307692307" y2="210.25641025641028" style="stroke:black;stroke-width:4" />
<line x1="530.7692307692307" y1="210.25641025641028" x2="517.948717948718" y2="191.025641025641" style="stroke:black;stroke-width:4" />
<line x1="517.948717948718" y1="191.025641025641" x2="492.3076923076923" y2="191.025641025641" style="stroke:black;stroke-width:4" />
<line x1="492.3076923076923" y1="191.025641025641" x2="479.4871794871795" y2="210.25641025641028" style="stroke:black;stroke-width:4" />
<line x1="479.4871794871795" y1="210.25641025641028" x2="453.84615384615387" y2="210.25641025641028" style="stroke:black;stroke-width:4" />
<line x1="453.84615384615387" y1="210.25641025641028" x2="447.43589743589746" y2="191.025641025641" style="stroke:black;stroke-width:4" />
<line x1="447.43589743589746" y1="191.025641025641" x2="415.3846153846154" y2="191.025641025641" style="stroke:black;stroke-width:4" />
<line x1="415.3846153846154" y1="191.025641025641" x2="408.974358974359" y2="210.25641025641028" style="stroke:black;stroke-width:4" />
<line x1="408.974358974359" y1="210.25641025641028" x2="383.33333333333337" y2="210.25641025641028" style="stroke:black;stroke-width:4" />
<line x1="383.33333333333337" y1="210.25641025641028" x2="383.33333333333337" y2="191.025641025641" style="stroke:black;stroke-width:4" />
<line x1="383.33333333333337" y1="191.025641025641" x2="402.5641025641026" y2="184.61538461538453" style="stroke:black;stroke-width:4" />
<line x1="402.5641025641026" y1="184.61538461538453" x2="402.5641025641026" y2="165.38461538461536" style="stroke:black;stroke-width:4" />
<line x1="402.5641025641026" y1="165.38461538461536" x2="383.33333333333337" y2="158.9743589743589" style="stroke:black;stroke-width:4" />
<line x1="383.33333333333337" y1="158.9743589743589" x2="376.92307692307696" y2="133.33333333333326" style="stroke:black;stroke-width:4" />
<line x1="376.92307692307696" y1="133.33333333333326" x2="389.7435897435898" y2="120.51282051282044" style="stroke:black;stroke-width:4" />
<line x1="389.7435897435898" y1="120.51282051282044" x2="370.51282051282055" y2="101.28205128205127" style="stroke:black;stroke-width:4" />
<line x1="370.51282051282055" y1="101.28205128205127" x2="357.69230769230774" y2="114.10256410256409" style="stroke:black;stroke-width:4" />
<line x1="357.69230769230774" y1="114.10256410256409" x2="351.28205128205127" y2="107.69230769230762" style="stroke:black;stroke-width:4" />
<line x1="351.28205128205127" y1="107.69230769230762" x2="325.64102564102564" y2="101.28205128205127" style="stroke:black;stroke-width:4" />
<line x1="325.64102564102564" y1="101.28205128205127" x2="325.64102564102564" y2="62.82051282051282" style="stroke:black;stroke-width:4" />
<line x1="325.64102564102564" y1="62.82051282051282" x2="306.4102564102564" y2="50.0" style="stroke:black;stroke-width:4" />
<ellipse cx="325.64102564102564" cy="62.82051282051282" rx="5" ry="5" style="fill:red;stroke:black;stroke-width:1" />
<line x1="306.4102564102564" y1="50.0" x2="293.5897435897436" y2="50.0" style="stroke:black;stroke-width:4" />
<line x1="293.5897435897436" y1="50.0" x2="274.35897435897436" y2="62.82051282051282" style="stroke:black;stroke-width:4" />
<line x1="274.35897435897436" y1="62.82051282051282" x2="274.35897435897436" y2="101.28205128205127" style="stroke:black;stroke-width:4" />
<line x1="274.35897435897436" y1="101.28205128205127" x2="248.71794871794873" y2="107.69230769230762" style="stroke:black;stroke-width:4" />
<line x1="248.71794871794873" y1="107.69230769230762" x2="242.30769230769232" y2="114.10256410256409" style="stroke:black;stroke-width:4" />
<line x1="242.30769230769232" y1="114.10256410256409" x2="229.4871794871795" y2="101.28205128205127" style="stroke:black;stroke-width:4" />
<line x1="229.4871794871795" y1="101.28205128205127" x2="210.25641025641028" y2="120.51282051282044" style="stroke:black;stroke-width:4" />
<line x1="210.25641025641028" y1="120.51282051282044" x2="223.0769230769231" y2="133.33333333333326" style="stroke:black;stroke-width:4" />
<line x1="223.0769230769231" y1="133.33333333333326" x2="216.66666666666669" y2="158.9743589743589" style="stroke:black;stroke-width:4" />
<line x1="216.66666666666669" y1="158.9743589743589" x2="197.43589743589743" y2="165.38461538461536" style="stroke:black;stroke-width:4" />
<line x1="197.43589743589743" y1="165.38461538461536" x2="197.43589743589743" y2="184.61538461538453" style="stroke:black;stroke-width:4" />
<line x1="197.43589743589743" y1="184.61538461538453" x2="216.66666666666669" y2="191.025641025641" style="stroke:black;stroke-width:4" />
<line x1="216.66666666666669" y1="191.025641025641" x2="216.66666666666669" y2="210.25641025641028" style="stroke:black;stroke-width:4" />
<line x1="216.66666666666669" y1="210.25641025641028" x2="191.02564102564102" y2="210.25641025641028" style="stroke:black;stroke-width:4" />
<ellipse cx="216.66666666666669" cy="210.25641025641028" rx="5" ry="5" style="fill:red;stroke:black;stroke-width:1" />
<line x1="191.02564102564102" y1="210.25641025641028" x2="184.6153846153846" y2="191.025641025641" style="stroke:black;stroke-width:4" />
<line x1="184.6153846153846" y1="191.025641025641" x2="152.56410256410257" y2="191.025641025641" style="stroke:black;stroke-width:4" />
<line x1="152.56410256410257" y1="191.025641025641" x2="146.15384615384616" y2="210.25641025641028" style="stroke:black;stroke-width:4" />
<line x1="146.15384615384616" y1="210.25641025641028" x2="120.51282051282051" y2="210.25641025641028" style="stroke:black;stroke-width:4" />
<ellipse cx="146.15384615384616" cy="210.25641025641028" rx="5" ry="5" style="fill:red;stroke:black;stroke-width:1" />
<line x1="120.51282051282051" y1="210.25641025641028" x2="107.6923076923077" y2="191.025641025641" style="stroke:black;stroke-width:4" />
<line x1="107.6923076923077" y1="191.025641025641" x2="82.05128205128204" y2="191.025641025641" style="stroke:black;stroke-width:4" />
<line x1="82.05128205128204" y1="191.025641025641" x2="69.23076923076923" y2="210.25641025641028" style="stroke:black;stroke-width:4" />
<line x1="69.23076923076923" y1="210.25641025641028" x2="56.41025641025641" y2="210.25641025641028" style="stroke:black;stroke-width:4" />
<line x1="56.41025641025641" y1="210.25641025641028" x2="56.41025641025641" y2="223.0769230769231" style="stroke:black;stroke-width:4" />
<line x1="56.41025641025641" y1="223.0769230769231" x2="62.82051282051282" y2="223.0769230769231" style="stroke:black;stroke-width:4" />
<line x1="62.82051282051282" y1="223.0769230769231" x2="62.82051282051282" y2="242.30769230769226" style="stroke:black;stroke-width:4" />
<line x1="62.82051282051282" y1="242.30769230769226" x2="50.0" y2="242.30769230769226" style="stroke:black;stroke-width:4" />
<line x1="50.0" y1="242.30769230769226" x2="50.0" y2="255.12820512820508" style="stroke:black;stroke-width:4" />
<line x1="50.0" y1="255.12820512820508" x2="62.82051282051282" y2="255.12820512820508" style="stroke:black;stroke-width:4" />
<line x1="62.82051282051282" y1="255.12820512820508" x2="62.82051282051282" y2="280.7692307692307" style="stroke:black;stroke-width:4" />
<line x1="62.82051282051282" y1="280.7692307692307" x2="50.0" y2="280.7692307692307" style="stroke:black;stroke-width:4" />
<line x1="50.0" y1="280.7692307692307" x2="50.0" y2="293.5897435897436" style="stroke:black;stroke-width:4" />
<line x1="50.0" y1="293.5897435897436" x2="62.82051282051282" y2="293.5897435897436" style="stroke:black;stroke-width:4" />
<line x1="62.82051282051282" y1="293.5897435897436" x2="62.82051282051282" y2="319.2307692307692" style="stroke:black;stroke-width:4" />
<ellipse cx="62.82051282051282" cy="293.5897435897436" rx="5" ry="5" style="fill:red;stroke:black;stroke-width:1" />
<line x1="62.82051282051282" y1="319.2307692307692" x2="50.0" y2="319.2307692307692" style="stroke:black;stroke-width:4" />
<line x1="50.0" y1="319.2307692307692" x2="50.0" y2="332.05128205128204" style="stroke:black;stroke-width:4" />
<line x1="50.0" y1="332.05128205128204" x2="62.82051282051282" y2="332.05128205128204" style="stroke:black;stroke-width:4" />
<line x1="62.82051282051282" y1="332.05128205128204" x2="62.82051282051282" y2="357.6923076923077" style="stroke:black;stroke-width:4" />
<ellipse cx="62.82051282051282" cy="332.05128205128204" rx="5" ry="5" style="fill:red;stroke:black;stroke-width:1" />
<line x1="62.82051282051282" y1="357.6923076923077" x2="50.0" y2="357.6923076923077" style="stroke:black;stroke-width:4" />
<line x1="50.0" y1="357.6923076923077" x2="50.0" y2="370.5128205128205" style="stroke:black;stroke-width:4" />
<line x1="50.0" y1="370.5128205128205" x2="62.82051282051282" y2="370.5128205128205" style="stroke:black;stroke-width:4" />
<line x1="62.82051282051282" y1="370.5128205128205" x2="69.23076923076923" y2="376.9230769230769" style="stroke:black;stroke-width:4" />
<line x1="69.23076923076923" y1="376.9230769230769" x2="75.64102564102564" y2="376.9230769230769" style="stroke:black;stroke-width:4" />
<line x1="75.64102564102564" y1="376.9230769230769" x2="82.05128205128204" y2="370.5128205128205" style="stroke:black;stroke-width:4" />
<line x1="82.05128205128204" y1="370.5128205128205" x2="107.6923076923077" y2="370.5128205128205" style="stroke:black;stroke-width:4" />
<line x1="107.6923076923077" y1="370.5128205128205" x2="107.6923076923077" y2="376.9230769230769" style="stroke:black;stroke-width:4" />
<line x1="107.6923076923077" y1="376.9230769230769" x2="120.51282051282051" y2="376.9230769230769" style="stroke:black;stroke-width:4" />
<line x1="120.51282051282051" y1="376.9230769230769" x2="120.51282051282051" y2="370.5128205128205" style="stroke:black;stroke-width:4" />
<line x1="120.51282051282051" y1="370.5128205128205" x2="139.74358974358975" y2="370.5128205128205" style="stroke:black;stroke-width:4" />
<line x1="139.74358974358975" y1="370.5128205128205" x2="146.15384615384616" y2="376.9230769230769" style="stroke:black;stroke-width:4" />
<line x1="146.15384615384616" y1="376.9230769230769" x2="165.3846153846154" y2="383.3333333333333" style="stroke:black;stroke-width:4" />
<line x1="165.3846153846154" y1="383.3333333333333" x2="171.7948717948718" y2="389.7435897435897" style="stroke:black;stroke-width:4" />
<line x1="171.7948717948718" y1="389.7435897435897" x2="171.7948717948718" y2="415.38461538461536" style="stroke:black;stroke-width:4" />
<line x1="171.7948717948718" y1="415.38461538461536" x2="165.3846153846154" y2="415.38461538461536" style="stroke:black;stroke-width:4" />
<line x1="165.3846153846154" y1="415.38461538461536" x2="165.3846153846154" y2="421.79487179487177" style="stroke:black;stroke-width:4" />
<line x1="165.3846153846154" y1="421.79487179487177" x2="171.7948717948718" y2="421.79487179487177" style="stroke:black;stroke-width:4" />
<line x1="171.7948717948718" y1="421.79487179487177" x2="171.7948717948718" y2="447.4358974358974" style="stroke:black;stroke-width:4" />
<line x1="171.7948717948718" y1="447.4358974358974" x2="165.3846153846154" y2="447.4358974358974" style="stroke:black;stroke-width:4" />
<line x1="165.3846153846154" y1="447.4358974358974" x2="165.3846153846154" y2="453.8461538461538" style="stroke:black;stroke-width:4" />
<line x1="165.3846153846154" y1="453.8461538461538" x2="171.7948717948718" y2="453.8461538461538" style="stroke:black;stroke-width:4" />
<line x1="171.7948717948718" y1="453.8461538461538" x2="171.7948717948718" y2="479.48717948717945" style="stroke:black;stroke-width:4" />
<line x1="171.7948717948718" y1="479.48717948717945" x2="165.3846153846154" y2="479.48717948717945" style="stroke:black;stroke-width:4" />
<line x1="165.3846153846154" y1="479.48717948717945" x2="165.3846153846154" y2="485.89743589743586" style="stroke:black;stroke-width:4" />
<line x1="165.3846153846154" y1="485.89743589743586" x2="171.7948717948718" y2="485.89743589743586" style="stroke:black;stroke-width:4" />
<line x1="171.7948717948718" y1="485.89743589743586" x2="171.7948717948718" y2="511.53846153846155" style="stroke:black;stroke-width:4" />
<line x1="171.7948717948718" y1="511.53846153846155" x2="165.3846153846154" y2="511.53846153846155" style="stroke:black;stroke-width:4" />
<line x1="165.3846153846154" y1="511.53846153846155" x2="165.3846153846154" y2="517.948717948718" style="stroke:black;stroke-width:4" />
<line x1="165.3846153846154" y1="517.948717948718" x2="171.7948717948718" y2="517.948717948718" style="stroke:black;stroke-width:4" />
<line x1="171.7948717948718" y1="517.948717948718" x2="171.7948717948718" y2="550.0" style="stroke:black;stroke-width:4" />
<line x1="171.7948717948718" y1="550.0" x2="165.3846153846154" y2="550.0" style="stroke:black;stroke-width:4" />
<line x1="165.3846153846154" y1="550.0" x2="165.3846153846154" y2="556.4102564102564" style="stroke:black;stroke-width:4" />
<line x1="165.3846153846154" y1="556.4102564102564" x2="171.7948717948718" y2="556.4102564102564" style="stroke:black;stroke-width:4" />
<line x1="171.7948717948718" y1="556.4102564102564" x2="171.7948717948718" y2="582.051282051282" style="stroke:black;stroke-width:4" />
<line x1="171.7948717948718" y1="582.051282051282" x2="165.3846153846154" y2="582.051282051282" style="stroke:black;stroke-width:4" />
<line x1="165.3846153846154" y1="582.051282051282" x2="165.3846153846154" y2="588.4615384615385" style="stroke:black;stroke-width:4" />
<line x1="165.3846153846154" y1="588.4615384615385" x2="171.7948717948718" y2="588.4615384615385" style="stroke:black;stroke-width:4" />
<line x1="171.7948717948718" y1="588.4615384615385" x2="171.7948717948718" y2="614.1025641025641" style="stroke:black;stroke-width:4" />
<ellipse cx="171.7948717948718" cy="588.4615384615385" rx="5" ry="5" style="fill:red;stroke:black;stroke-width:1" />
<line x1="171.7948717948718" y1="614.1025641025641" x2="165.3846153846154" y2="614.1025641025641" style="stroke:black;stroke-width:4" />
<ellipse cx="171.7948717948718" cy="614.1025641025641" rx="5" ry="5" style="fill:red;stroke:black;stroke-width:1" />
<line x1="165.3846153846154" y1="614.1025641025641" x2="165.3846153846154" y2="620.5128205128206" style="stroke:black;stroke-width:4" />
<line x1="165.3846153846154" y1="620.5128205128206" x2="171.7948717948718" y2="620.5128205128206" style="stroke:black;stroke-width:4" />
<line x1="171.7948717948718" y1="620.5128205128206" x2="171.7948717948718" y2="646.1538461538462" style="stroke:black;stroke-width:4" />
<line x1="171.7948717948718" y1="646.1538461538462" x2="165.3846153846154" y2="646.1538461538462" style="stroke:black;stroke-width:4" />
<line x1="165.3846153846154" y1="646.1538461538462" x2="165.3846153846154" y2="652.5641025641025" style="stroke:black;stroke-width:4" />
<line x1="165.3846153846154" y1="652.5641025641025" x2="171.7948717948718" y2="652.5641025641025" style="stroke:black;stroke-width:4" />
<line x1="171.7948717948718" y1="652.5641025641025" x2="171.7948717948718" y2="678.2051282051282" style="stroke:black;stroke-width:4" />
<ellipse cx="171.7948717948718" cy="652.5641025641025" rx="5" ry="5" style="fill:red;stroke:black;stroke-width:1" />
<line x1="171.7948717948718" y1="678.2051282051282" x2="165.3846153846154" y2="678.2051282051282" style="stroke:black;stroke-width:4" />
<line x1="165.3846153846154" y1="678.2051282051282" x2="165.3846153846154" y2="684.6153846153846" style="stroke:black;stroke-width:4" />
<line x1="165.3846153846154" y1="684.6153846153846" x2="171.7948717948718" y2="684.6153846153846" style="stroke:black;stroke-width:4" />
<line x1="171.7948717948718" y1="684.6153846153846" x2="171.7948717948718" y2="710.2564102564103" style="stroke:black;stroke-width:4" />
<line x1="171.7948717948718" y1="710.2564102564103" x2="158.97435897435898" y2="710.2564102564103" style="stroke:black;stroke-width:4" />
<ellipse cx="171.7948717948718" cy="710.2564102564103" rx="5" ry="5" style="fill:red;stroke:black;stroke-width:1" />
<line x1="158.97435897435898" y1="710.2564102564103" x2="158.97435897435898" y2="729.4871794871794" style="stroke:black;stroke-width:4" />
<line x1="158.97435897435898" y1="729.4871794871794" x2="171.7948717948718" y2="729.4871794871794" style="stroke:black;stroke-width:4" />
<line x1="171.7948717948718" y1="729.4871794871794" x2="171.7948717948718" y2="748.7179487179487" style="stroke:black;stroke-width:4" />
<line x1="171.7948717948718" y1="748.7179487179487" x2="165.3846153846154" y2="748.7179487179487" style="stroke:black;stroke-width:4" />
<line x1="165.3846153846154" y1="748.7179487179487" x2="165.3846153846154" y2="755.1282051282051" style="stroke:black;stroke-width:4" />
<line x1="165.3846153846154" y1="755.1282051282051" x2="171.7948717948718" y2="755.1282051282051" style="stroke:black;stroke-width:4" />
<line x1="171.7948717948718" y1="755.1282051282051" x2="171.7948717948718" y2="774.3589743589744" style="stroke:black;stroke-width:4" />
<ellipse cx="171.7948717948718" cy="755.1282051282051" rx="5" ry="5" style="fill:red;stroke:black;stroke-width:1" />
<line x1="171.7948717948718" y1="774.3589743589744" x2="158.97435897435898" y2="774.3589743589744" style="stroke:black;stroke-width:4" />
<line x1="158.97435897435898" y1="774.3589743589744" x2="158.97435897435898" y2="793.5897435897435" style="stroke:black;stroke-width:4" />
<ellipse cx="158.97435897435898" cy="774.3589743589744" rx="5" ry="5" style="fill:red;stroke:black;stroke-width:1" />
<line x1="158.97435897435898" y1="793.5897435897435" x2="165.3846153846154" y2="793.5897435897435" style="stroke:black;stroke-width:4" />
</svg>